<?xml version="1.0" standalone="no"?>
<!DOCTYPE svg PUBLIC "-//W3C//DTD SVG 20010904//EN"
 "http://www.w3.org/TR/2001/REC-SVG-20010904/DTD/svg10.dtd">
<svg version="1.0" xmlns="http://www.w3.org/2000/svg"
 width="400.000000pt" height="400.000000pt" viewBox="0 0 400.000000 400.000000"
 preserveAspectRatio="xMidYMid meet">
<metadata>
Created by potrace 1.14, written by Peter Selinger 2001-2017
</metadata>
<g transform="translate(0.000000,400.000000) scale(0.100000,-0.100000)"
fill="#000000" stroke="none">
<path d="M0 2000 l0 -2000 2000 0 2000 0 0 2000 0 2000 -2000 0 -2000 0 0
-2000z m3213 988 c-162 -279 -415 -721 -424 -742 -10 -21 5 -52 133 -272 109
-187 374 -646 425 -736 2 -5 -70 -8 -160 -8 l-164 0 -208 363 c-115 199 -244
424 -288 499 l-78 137 62 108 c34 59 109 187 165 285 57 97 104 181 104 187 0
8 -48 11 -166 9 l-166 -3 -171 -301 c-254 -445 -288 -504 -525 -914 l-217
-375 -503 -3 c-340 -1 -502 1 -502 8 0 10 97 179 510 890 116 201 291 501 387
668 96 166 178 302 181 302 11 0 297 -503 299 -525 3 -21 -135 -266 -152 -271
-6 -2 -39 48 -74 111 -36 63 -68 115 -72 115 -4 0 -43 -62 -86 -137 -291 -505
-483 -840 -489 -855 -6 -17 6 -18 165 -18 l170 0 17 32 c9 17 94 164 189 327
94 163 190 330 212 371 23 41 70 125 106 185 128 216 335 571 363 622 l29 53
497 0 496 0 -65 -112z m-796 -1288 l271 -470 -166 2 -166 3 -188 325 c-103
179 -187 329 -188 333 0 11 154 277 160 277 3 0 128 -212 277 -470z"/>
</g>
</svg>
